<?xml version="1.0" encoding="UTF-8" standalone="no"?><!DOCTYPE svg PUBLIC "-//W3C//DTD SVG 1.1//EN" "http://www.w3.org/Graphics/SVG/1.1/DTD/svg11.dtd"><!-- Generated by graphviz version 2.40.1 (20161225.0304)
 --><!-- Title: %0 Pages: 1 --><svg xmlns="http://www.w3.org/2000/svg" xmlns:xlink="http://www.w3.org/1999/xlink" width="188pt" height="152pt" viewBox="0.00 0.00 188.00 152.00">
<g id="graph0" class="graph" transform="scale(1 1) rotate(0) translate(4 148)">
<title>%0</title>
<polygon fill="#ffffff" stroke="transparent" points="-4,4 -4,-148 184,-148 184,4 -4,4"/>
<!-- a -->
<g id="node1" class="node">
<title>a</title>
<ellipse fill="none" stroke="#000000" cx="18" cy="-78" rx="18" ry="18"/>
<text text-anchor="middle" x="18" y="-73.8" font-family="Times,serif" font-size="14.00" fill="#000000">a</text>
</g>
<!-- b -->
<g id="node2" class="node">
<title>b</title>
<ellipse fill="none" stroke="#000000" cx="90" cy="-78" rx="18" ry="18"/>
<text text-anchor="middle" x="90" y="-73.8" font-family="Times,serif" font-size="14.00" fill="#000000">b</text>
</g>
<!-- a&#45;&#45;b -->
<g id="edge2" class="edge">
<title>a--b</title>
<path fill="none" stroke="#000000" d="M36.1686,-78C47,-78 60.7124,-78 71.5867,-78"/>
</g>
<!-- c -->
<g id="node3" class="node">
<title>c</title>
<ellipse fill="none" stroke="#000000" cx="162" cy="-126" rx="18" ry="18"/>
<text text-anchor="middle" x="162" y="-121.8" font-family="Times,serif" font-size="14.00" fill="#000000">c</text>
</g>
<!-- a&#45;&#45;c -->
<g id="edge1" class="edge">
<title>a--c</title>
<path fill="none" stroke="#000000" d="M33.6338,-87.0454C44.1898,-92.8421 58.592,-100.1597 72,-105 96.2972,-113.7713 125.6302,-119.8159 144.0547,-123.0943"/>
</g>
<!-- f -->
<g id="node5" class="node">
<title>f</title>
<ellipse fill="none" stroke="#000000" cx="90" cy="-22" rx="18" ry="18"/>
<text text-anchor="middle" x="90" y="-17.8" font-family="Times,serif" font-size="14.00" fill="#000000">f</text>
</g>
<!-- a&#45;&#45;f -->
<g id="edge3" class="edge">
<title>a--f</title>
<path fill="none" stroke="#000000" d="M32.2249,-66.9362C44.6835,-57.2461 62.7155,-43.2213 75.3104,-33.4253"/>
</g>
<!-- b&#45;&#45;c -->
<g id="edge4" class="edge">
<title>b--c</title>
<path fill="none" stroke="#000000" d="M105.2693,-88.1796C117.488,-96.3253 134.5398,-107.6932 146.7527,-115.8351"/>
</g>
<!-- d -->
<g id="node4" class="node">
<title>d</title>
<ellipse fill="none" stroke="#000000" cx="162" cy="-72" rx="18" ry="18"/>
<text text-anchor="middle" x="162" y="-67.8" font-family="Times,serif" font-size="14.00" fill="#000000">d</text>
</g>
<!-- b&#45;&#45;d -->
<g id="edge5" class="edge">
<title>b--d</title>
<path fill="none" stroke="#000000" d="M108.1686,-76.4859C119,-75.5833 132.7124,-74.4406 143.5867,-73.5344"/>
</g>
<!-- g -->
<g id="node6" class="node">
<title>g</title>
<ellipse fill="none" stroke="#000000" cx="162" cy="-18" rx="18" ry="18"/>
<text text-anchor="middle" x="162" y="-13.8" font-family="Times,serif" font-size="14.00" fill="#000000">g</text>
</g>
<!-- f&#45;&#45;g -->
<g id="edge6" class="edge">
<title>f--g</title>
<path fill="none" stroke="#000000" d="M108.1686,-20.9906C119,-20.3889 132.7124,-19.6271 143.5867,-19.023"/>
</g>
</g>
</svg>